# xmcd CD Database Entry
#
# Track frame offsets:
# 150
# 18364
# 39037
# 56866
# 73155
# 87119
# 108282
# 134019
# 153670
# 169618
#
# Disc length: 2551 seconds
#
# Revision: 2
# Processed by: cddbd v1.4PL0 Copyright (c) Steve Scherf et al.
# Submitted via: tcd 2.0b
#
DISCID=8009f50a
DTITLE=Colin Vearncombe - the accused
DYEAR=1900
DGENRE=
TTITLE0=sleeper
TTITLE1=number one
TTITLE2=yves klein blue
TTITLE3=the way she was before
TTITLE4=ghosts
TTITLE5=better letting go
TTITLE6=storm cloud katherine
TTITLE7=st cecilia
TTITLE8=blue sky
TTITLE9=surrender
EXTD=
EXTT0=
EXTT1=
EXTT2=
EXTT3=
EXTT4=
EXTT5=
EXTT6=
EXTT7=
EXTT8=
EXTT9=
PLAYORDER=
